<svg xmlns="http://www.w3.org/2000/svg" width="116" height="50" viewBox="0 0 116 50">
  <!-- Simple horizontal line -->
  <line x1="10" y1="25" x2="40" y2="25" stroke="#343a40" stroke-width="1.5"/>

  <!-- IRCP text -->
  <text x="25" y="20" font-family="Arial, sans-serif" font-size="10" font-weight="bold" text-anchor="middle" fill="#343a40">IRCP</text>
  <text x="25" y="32" font-family="Arial, sans-serif" font-size="5" font-weight="bold" text-anchor="middle" fill="#0d253f">MADAGASCAR</text>

  <!-- Simplified Logotype -->
  <g transform="translate(45, 20)">
    <path fill="#343a40" d="M3 0L5 0L5 10L3 10L3 0ZM8 10L6 10L6 0L10 0Q11 0 12 0.5Q13 1 13.5 1.7Q14 2.4 14 3.3L14 3.3Q14 4.3 13.5 5Q13 5.7 12 6.1Q11 6.5 10 6.5L10 6.5L7 6.5L7 5L10 5Q10.5 5 11 4.8Q11.5 4.6 11.7 4.2Q12 3.8 12 3.3L12 3.3Q12 2.8 11.7 2.5Q11.5 2.1 11 1.9Q10.5 1.7 10 1.7L10 1.7L8 1.7L8 10ZM14 10L12 10L9.5 5.5L11.5 5.5L14 10ZM19 10.1L19 10.1Q17.7 10.1 16.7 9.5Q15.7 8.9 15.1 7.8Q14.5 6.7 14.5 5.1L14.5 5.1Q14.5 3.5 15.1 2.4Q15.7 1.3 16.7 0.7Q17.7 0.1 19 0.1L19 0.1Q19.8 0.1 20.5 0.3Q21.2 0.5 21.8 1Q22.3 1.4 22.7 2.1Q23 2.7 23.1 3.5L23.1 3.5L21.1 3.5Q21 3.1 20.8 2.8Q20.6 2.5 20.3 2.3Q20 2 19.7 1.9Q19.4 1.8 19 1.8L19 1.8Q18.2 1.8 17.7 2.2Q17.1 2.6 16.8 3.3Q16.5 4 16.5 5.1L16.5 5.1Q16.5 6.1 16.8 6.9Q17.1 7.6 17.7 8Q18.2 8.3 19 8.3L19 8.3Q19.4 8.3 19.7 8.2Q20 8 20.3 7.8Q20.6 7.6 20.8 7.3Q21 7 21.1 6.6L21.1 6.6L23.1 6.6Q23 7.3 22.7 7.9Q22.3 8.5 21.8 9Q21.2 9.5 20.5 9.8Q19.8 10.1 19 10.1ZM25.5 10L23.5 10L23.5 0L27.5 0Q28.7 0 29.5 0.5Q30.3 1 30.7 1.8Q31.1 2.5 31.1 3.5L31.1 3.5Q31.1 4.5 30.7 5.2Q30.3 6 29.5 6.4Q28.7 6.8 27.5 6.8L27.5 6.8L25 6.8L25 5.2L27 5.2Q27.7 5.2 28 5Q28.4 4.8 28.6 4.4Q28.8 4 28.8 3.5L28.8 3.5Q28.8 3 28.6 2.6Q28.4 2.2 28 2Q27.7 1.8 27 1.8L27 1.8L25.5 1.8L25.5 10Z"/>
  </g>
</svg>
