<svg xmlns="http://www.w3.org/2000/svg" width="116" height="50" viewBox="0 0 116 50">
  <!-- Simple horizontal line -->
  <line x1="10" y1="25" x2="40" y2="25" stroke="#f8f9fa" stroke-width="1.5"/>

  <!-- IRCP text -->
  <text x="25" y="20" font-family="Arial, sans-serif" font-size="10" font-weight="bold" text-anchor="middle" fill="#ffffff">IRCP</text>
  <text x="25" y="32" font-family="Arial, sans-serif" font-size="5" font-weight="bold" text-anchor="middle" fill="#e2e8f0">MADAGASCAR</text>

  <!-- Logotype -->
  <g transform="translate(50, 20)">
    <path fill="#ffffff" d="M3.5 0.2L5.7 0.2L5.7 11L3.5 11L3.5 0.2ZM8.9 11L6.7 11L6.7 0.2L10.9 0.2Q12.1 0.2 13 0.7Q13.8 1.1 14.3 1.9Q14.7 2.7 14.7 3.7L14.7 3.7Q14.7 4.8 14.3 5.6Q13.8 6.3 13 6.7Q12.1 7.1 10.8 7.1L10.8 7.1L8 7.1L8 5.4L10.5 5.4Q11.2 5.4 11.6 5.2Q12 5 12.2 4.6Q12.4 4.3 12.4 3.7L12.4 3.7Q12.4 3.2 12.2 2.8Q12 2.4 11.6 2.2Q11.2 2 10.5 2L10.5 2L8.9 2L8.9 11ZM15.1 11L12.7 11L10.1 6.1L12.4 6.1L15.1 11ZM20.1 11.1L20.1 11.1Q18.7 11.1 17.6 10.5Q16.4 9.8 15.8 8.6Q15.1 7.4 15.1 5.6L15.1 5.6Q15.1 3.9 15.8 2.6Q16.5 1.4 17.6 0.7Q18.7 0.1 20.1 0.1L20.1 0.1Q21 0.1 21.8 0.3Q22.6 0.6 23.2 1.1Q23.8 1.6 24.2 2.3Q24.6 3 24.7 3.9L24.7 3.9L22.5 3.9Q22.4 3.5 22.2 3.1Q22 2.8 21.7 2.5Q21.4 2.3 21 2.2Q20.7 2 20.2 2L20.2 2Q19.3 2 18.7 2.5Q18.1 2.9 17.7 3.7Q17.4 4.5 17.4 5.6L17.4 5.6Q17.4 6.8 17.7 7.6Q18.1 8.4 18.7 8.8Q19.3 9.2 20.1 9.2L20.1 9.2Q20.6 9.2 21 9Q21.4 8.9 21.7 8.7Q22 8.4 22.2 8.1Q22.4 7.7 22.5 7.3L22.5 7.3L24.7 7.3Q24.6 8 24.3 8.7Q24 9.4 23.3 10Q22.7 10.5 21.9 10.8Q21.1 11.1 20.1 11.1ZM27.6 11L25.4 11L25.4 0.2L29.5 0.2Q30.8 0.2 31.6 0.7Q32.5 1.2 33 2Q33.4 2.8 33.4 3.9L33.4 3.9Q33.4 4.9 33 5.7Q32.5 6.5 31.6 7Q30.8 7.5 29.5 7.5L29.5 7.5L26.8 7.5L26.8 5.7L29.1 5.7Q29.8 5.7 30.2 5.5Q30.6 5.2 30.8 4.8Q31 4.4 31 3.9L31 3.9Q31 3.3 30.8 2.9Q30.6 2.5 30.2 2.3Q29.8 2 29.1 2L29.1 2L27.6 2L27.6 11Z"/>
  </g>
</svg>
